<svg xmlns="http://www.w3.org/2000/svg" viewBox="0 0 305.48 116.64"><defs><style>.cls-1{fill:#9ccee1;}.cls-2{fill:#83c2d9;}.cls-3{fill:#202c35;}.cls-4,.cls-5{fill:#3f5769;}.cls-5{font-size:65px;font-family:TarrgetAcademyItalic, Tarrget Academy Italic;font-style:italic;}</style></defs><title>logocloud</title><g id="Layer_1" data-name="Layer 1"><path class="cls-1" d="M292.57,91.53A13.19,13.19,0,0,0,278.89,78.9h-.24a21.18,21.18,0,0,0,.24-3.18c0-14-12.24-25.28-27.35-25.28a27.23,27.23,0,0,0-26,17.42,21.64,21.64,0,0,0-8.21-1.61c-11.3,0-20.51,8.49-20.51,18.89s9.21,19,20.51,19H280.6v-.15A13,13,0,0,0,292.57,91.53Z" transform="translate(6.99 -36.67)"/><path class="cls-2" d="M292.57,92.51H276a55.24,55.24,0,0,1-48.49-28.78,24,24,0,0,0-1.95,4.13,21.64,21.64,0,0,0-8.21-1.61c-11.3,0-20.51,8.49-20.51,18.89s9.21,19,20.51,19H280.6v-.15A13.1,13.1,0,0,0,292.57,92.51Z" transform="translate(6.99 -36.67)"/><path class="cls-3" d="M204.33,58.34h0a1.85,1.85,0,0,1-1.84-1.84,19.56,19.56,0,0,1,5.95-14,20.24,20.24,0,0,1,14.17-5.84h0a1.84,1.84,0,1,1,0,3.68A16.6,16.6,0,0,0,211,45.12a15.92,15.92,0,0,0-4.84,11.38A1.84,1.84,0,0,1,204.33,58.34Z" transform="translate(6.99 -36.67)"/><path class="cls-3" d="M211.57,58.3a1.84,1.84,0,0,1-1.84-1.84,12.48,12.48,0,0,1,3.77-8.93,12.9,12.9,0,0,1,9-3.68h0a1.84,1.84,0,1,1,0,3.68h0a9.25,9.25,0,0,0-6.39,2.63,8.79,8.79,0,0,0-2.74,6.3A1.84,1.84,0,0,1,211.57,58.3Z" transform="translate(6.99 -36.67)"/><ellipse class="cls-3" cx="221.28" cy="55.15" rx="3.65" ry="3.57" transform="translate(0.33 11.5) rotate(-12.24)"/><polygon class="cls-4" points="251.69 41.2 239.36 53.77 243.91 53.77 243.91 67.49 259.87 67.49 259.87 53.77 264.03 53.77 251.69 41.2"/><path class="cls-3" d="M280.7,77.15V75.73A26.05,26.05,0,0,0,272.63,57a1.84,1.84,0,0,0-2.57,2.63h0A22.38,22.38,0,0,1,277,75.73a20.53,20.53,0,0,1-.22,2.93,1.84,1.84,0,0,0,.45,1.47,1.81,1.81,0,0,0,1.41.63h.21a11.36,11.36,0,0,1,11.87,10.77,11.17,11.17,0,0,1-10.35,10.64,1.4,1.4,0,0,0-.49.15H254.72v-10H257a1.84,1.84,0,0,0,1.33-3.12L246,76.58a1.84,1.84,0,0,0-2.6,0h0L231.05,89.16a1.83,1.83,0,0,0,1.32,3.12h2.71v10h-3.92a1.84,1.84,0,0,0,0,3.68H280.6a1.58,1.58,0,0,0,.87-.26,14.73,14.73,0,0,0,12.89-14.21A14.91,14.91,0,0,0,280.7,77.15Zm-41.94,25.17V90.44a1.84,1.84,0,0,0-1.84-1.84h-.17l8-8.1,8,8.12A1.84,1.84,0,0,0,251,90.46v11.88Z" transform="translate(6.99 -36.67)"/><path class="cls-3" d="M251.54,52.3a27.07,27.07,0,0,1,14.87,4.38,1.84,1.84,0,0,0,2.31-2.87,1.67,1.67,0,0,0-.28-.18,30.49,30.49,0,0,0-16.9-5,29.21,29.21,0,0,0-27.08,16.9,23.6,23.6,0,0,0-7.17-1.11C205,64.41,195,73.75,195,85.14s10,20.79,22.35,20.79h7a1.85,1.85,0,0,0,0-3.69h-7c-10.29.08-18.67-7.6-18.67-17.1S207.06,68,217.35,68a20.26,20.26,0,0,1,7.53,1.46,1.83,1.83,0,0,0,1.45,0,1.87,1.87,0,0,0,1-1.07A25.31,25.31,0,0,1,251.54,52.3Z" transform="translate(6.99 -36.67)"/></g><g id="Layer_2" data-name="Layer 2"><text class="cls-5" transform="translate(0 105.46) scale(0.73 1)">TK Cloud</text></g></svg>