<svg id="Layer_1" data-name="Layer 1" xmlns="http://www.w3.org/2000/svg" viewBox="0 0 198.59 152.05"><defs><style>.cls-1{fill:#9ccee1;}.cls-2{fill:#83c2d9;}.cls-3{fill:#202c35;}.cls-4{fill:#3f5769;}</style></defs><title>logocloud2</title><path class="cls-1" d="M229.87,107.75a23.08,23.08,0,0,0-24-22.12h-.42a40.08,40.08,0,0,0,.42-5.58c0-24.44-21.44-44.26-47.91-44.26a47.68,47.68,0,0,0-45.49,30.49,37.92,37.92,0,0,0-14.38-2.8c-19.8,0-35.92,14.86-35.92,33.08s16.12,33.17,35.92,33.17H208.92v-.25A22.76,22.76,0,0,0,229.87,107.75Z" transform="translate(-49.94 -11.67)"/><path class="cls-2" d="M229.87,109.45h-29a96.7,96.7,0,0,1-84.92-50.39,42.53,42.53,0,0,0-3.42,7.22,37.92,37.92,0,0,0-14.38-2.8c-19.8,0-35.92,14.86-35.92,33.08s16.12,33.17,35.92,33.17H208.92v-.25A23,23,0,0,0,229.87,109.45Z" transform="translate(-49.94 -11.67)"/><path class="cls-3" d="M75.35,49.62h0a3.23,3.23,0,0,1-3.23-3.23,34.3,34.3,0,0,1,10.42-24.5,35.43,35.43,0,0,1,24.82-10.22h0a3.23,3.23,0,0,1,0,6.45A29,29,0,0,0,87,26.47a27.92,27.92,0,0,0-8.48,19.92A3.23,3.23,0,0,1,75.35,49.62Z" transform="translate(-49.94 -11.67)"/><path class="cls-3" d="M88,49.55a3.23,3.23,0,0,1-3.23-3.22A21.84,21.84,0,0,1,91.4,30.69a22.58,22.58,0,0,1,15.83-6.45h0a3.23,3.23,0,1,1,0,6.45h0A16.14,16.14,0,0,0,96,35.3a15.35,15.35,0,0,0-4.8,11A3.22,3.22,0,0,1,88,49.55Z" transform="translate(-49.94 -11.67)"/><ellipse class="cls-3" cx="105.03" cy="44.03" rx="6.38" ry="6.25" transform="translate(-56.89 11.6) rotate(-12.24)"/><polygon class="cls-4" points="96.11 72.15 74.51 94.17 82.47 94.17 82.47 118.19 110.42 118.19 110.42 94.17 117.71 94.17 96.11 72.15"/><path class="cls-3" d="M209.08,82.57V80.08A45.59,45.59,0,0,0,195,47.3a3.23,3.23,0,1,0-4.52,4.61h0a39.14,39.14,0,0,1,12.19,28.17,38.26,38.26,0,0,1-.39,5.13,3.21,3.21,0,0,0,.78,2.58,3.25,3.25,0,0,0,2.48,1.1h.35a19.89,19.89,0,0,1,20.8,18.86,19.57,19.57,0,0,1-18.12,18.63,2.43,2.43,0,0,0-.87.26H163.59V109.07h4.06a3.22,3.22,0,0,0,2.32-5.48l-21.63-22a3.21,3.21,0,0,0-4.56,0l0,0-21.63,22a3.2,3.2,0,0,0-.68,3.51,3.23,3.23,0,0,0,3,2h4.74v17.57h-6.87a3.23,3.23,0,0,0,0,6.45h86.6a2.73,2.73,0,0,0,1.51-.46A25.78,25.78,0,0,0,233,107.75,26.08,26.08,0,0,0,209.08,82.57Zm-73.45,44.07v-20.8a3.22,3.22,0,0,0-3.22-3.22h-.29l13.93-14.19,14,14.22a3.22,3.22,0,0,0-2.87,3.23v20.79Z" transform="translate(-49.94 -11.67)"/><path class="cls-3" d="M158,39a47.41,47.41,0,0,1,26.05,7.68,3.23,3.23,0,0,0,4-5,4.2,4.2,0,0,0-.49-.33A53.49,53.49,0,0,0,158,32.59a51.19,51.19,0,0,0-47.43,29.6A41,41,0,0,0,98,60.26c-21.47,0-39,16.34-39,36.3S76.57,133,98.14,133h12.22a3.23,3.23,0,0,0,0-6.45H98.14c-18,.13-32.69-13.32-32.69-29.95s14.67-30,32.69-30a35.7,35.7,0,0,1,13.19,2.55,3.15,3.15,0,0,0,4.25-1.87A44.37,44.37,0,0,1,158,39Z" transform="translate(-49.94 -11.67)"/><path class="cls-4" d="M49.94,163.72l8.68-19.1H51.38l3.75-8.19H81.38l-3.75,8.19H67.8L64.44,152h9.7l-5.79,4.05-2.55,1.43c-1,.54-2,1.09-3,1.65l-3.09,1.67c-1,.56-1.93,1.05-2.76,1.48l-2,1a4.68,4.68,0,0,1-.88.4Zm9.32-19.63-8.68,19.1h3.71a5.62,5.62,0,0,0,.84-.4c.51-.26,1.16-.6,1.95-1l2.67-1.45c1-.54,2-1.1,3-1.65l3-1.61c1-.51,1.77-1,2.48-1.38l4.45-3.09h-8.9l3.87-8.49h9.83L80.7,137H55.29l-3.24,7.13ZM52,162,60.63,143h-7.2l2.21-4.84H79.33L77.12,143H67.29l-4.9,10.78H69.6l-1.41,1L65.79,156l-2.85,1.58c-1,.55-2,1.07-2.92,1.59s-1.81,1-2.57,1.41-1.38.76-1.86,1-.73.37-.75.37Z" transform="translate(-49.94 -11.67)"/><path class="cls-4" d="M91.46,136.39l-3.39,7.48h.13l11.72-7.48h12.45l-11.46,7.48H105l-7.21,15.84H88.61L92,152.32l-9.58,7.39H71.65l10.59-23.32Zm-9,22.8,9.28-7.13H84l.2-.44h8.54l-3.46,7.57h8.39l6.73-14.79h-5l11.49-7.48h-11L88.07,144.4h-.64l3.43-7.48H82.44L72.29,159.19Zm7-21.13L86,145.54h1.83l11.68-7.48h8.07l-11.46,7.48H103L97.32,158H90.66l3.43-7.57H83.78l-1.25,2.73H89L82.69,158h-9l9.06-20Z" transform="translate(-49.94 -11.67)"/><path class="cls-4" d="M108.43,159.71,119,136.39h26.09l-1.26,2c-.36.54-.63,1-.82,1.34-.3.53-.69,1.2-1.17,2s-1.12,1.79-1.93,2.91h-15.5l-3.1,6.82h17.79c-.36.32-.88.76-1.56,1.3s-1.44,1.12-2.26,1.74-1.67,1.23-2.53,1.85-1.66,1.18-2.4,1.69-1.37.92-1.89,1.23a3.39,3.39,0,0,1-.94.46Zm10.76-22.79L109,159.19h18.73a2.77,2.77,0,0,0,.85-.42c.46-.28,1-.64,1.66-1.08l2.13-1.45c.77-.53,1.52-1.07,2.24-1.61s1.39-1,2-1.52,1.05-.85,1.37-1.14H120.73l3.58-7.88H139.9c.62-.88,1.17-1.71,1.64-2.48s.86-1.45,1.18-2a31.42,31.42,0,0,1,1.67-2.68ZM110.45,158l9.06-20h23.18q-.16.27-.48.84c-.21.38-.46.81-.74,1.3s-.56,1-.85,1.45-.56.92-.81,1.3H124l-4.61,10.16h16.3c-.22.21-.54.47-1,.8s-.9.66-1.41,1l-1.59,1.1c-.54.38-1.05.72-1.52,1l-1.21.73a2.09,2.09,0,0,1-.65.28Z" transform="translate(-49.94 -11.67)"/><path class="cls-4" d="M153.83,151.44l2.95-6.47,5.89,7.17-3.43,7.57H134.75l10.6-23.32h9.09l-6.85,15.05Zm-8.32-14.52-10.15,22.27h23.69l3.07-6.74-5.37-6.55L154,152h-7l6.85-15.05ZM161,153.11,158.73,158h-22l9.06-20h6.59l-6.81,15.05h8.73l2.34-5.19Z" transform="translate(-49.94 -11.67)"/><path class="cls-4" d="M160.14,159.71l10.6-23.32H196.8l-10.6,23.32Zm10.79-22.79-10.15,22.27H186l10.15-22.27ZM162.19,158l9.06-20h23.5l-9.06,20ZM186,143H175.67l-4.61,10.16h10.27Zm-13.51,9,3.58-7.88h8.52L181,152Zm3.74-7.35-3.1,6.82h7.71l3.11-6.82Z" transform="translate(-49.94 -11.67)"/><path class="cls-4" d="M214.6,136.39h9.16l-10.6,23.32H187.1l10.6-23.32h9.18L200,151.44h7.72Zm8.52.53h-8.36L207.91,152h-8.52l6.85-15.05h-8.35l-10.15,22.27H213Zm-8,1.14h6.6l-9.06,20h-23.5l9.06-20h6.63L198,153.11h10.27Z" transform="translate(-49.94 -11.67)"/><path class="cls-4" d="M214.06,159.71l10.6-23.32h20.58a3.06,3.06,0,0,1,1.73.51,3.25,3.25,0,0,1,1.18,1.38,4.56,4.56,0,0,1,.37,2.14,7.45,7.45,0,0,1-.72,2.75l-4.45,9.77a14.34,14.34,0,0,1-1.33,2.33,12,12,0,0,1-1.92,2.18,10,10,0,0,1-2.48,1.63,7.08,7.08,0,0,1-3,.63Zm10.79-22.79L214.7,159.19h20.17a6.39,6.39,0,0,0,2.75-.6,9.37,9.37,0,0,0,2.3-1.49,10.56,10.56,0,0,0,1.78-2,14.48,14.48,0,0,0,1.23-2.15l4.45-9.77a6.88,6.88,0,0,0,.69-2.55,4.41,4.41,0,0,0-.33-2,2.88,2.88,0,0,0-1.11-1.27,3.06,3.06,0,0,0-1.61-.44ZM216.11,158l9.06-20h19.3a2.55,2.55,0,0,1,1.35.38,2.42,2.42,0,0,1,.92,1,3.46,3.46,0,0,1,.31,1.61,5.45,5.45,0,0,1-.53,2.09l-4.45,9.77a10.81,10.81,0,0,1-1,1.78,9,9,0,0,1-1.45,1.63,8.35,8.35,0,0,1-1.89,1.21,5.56,5.56,0,0,1-2.31.48Zm8.87-4.93H235a2,2,0,0,0,.33-.33,2.94,2.94,0,0,0,.31-.41l3.94-8.67c.08-.15.11-.25.09-.31a1.9,1.9,0,0,1,0-.44H229.58Zm1.37-1.14,3.59-7.88h8.64L235,152Zm3.75-7.35L227,151.44h7.84l3.11-6.82Z" transform="translate(-49.94 -11.67)"/></svg>