<svg id="Layer_1" data-name="Layer 1" xmlns="http://www.w3.org/2000/svg" viewBox="0 0 99 37.29"><defs><style>.cls-1{fill:#ff940a;}.cls-2{fill:#f3ffd4;}</style></defs><title>tkcloudlogo</title><path class="cls-1" d="M.33,59.42l14.85-21.7H4l5.85-9.3h41L45,37.72H29.68l-5.25,8.4H39.58l-9,4.6-4,1.62c-1.51.62-3.09,1.24-4.72,1.88s-3.24,1.26-4.83,1.9-3,1.19-4.3,1.67-2.33.88-3.15,1.18a9.2,9.2,0,0,1-1.37.45Zm16-22.3L1.38,58.82h7.2a12.36,12.36,0,0,0,1.3-.45c.8-.3,1.81-.69,3-1.18l4.17-1.65,4.73-1.87,4.62-1.83c1.49-.58,2.78-1.11,3.88-1.57l7-3.5H23.38l6.05-9.65H44.78l5-8.1H10.13l-5.05,8.1ZM3.68,57.47l14.8-21.65H7.23l3.45-5.5h37l-3.45,5.5H28.88L21.23,48.07H32.48l-2.2,1.1-3.75,1.52-4.45,1.8c-1.54.62-3,1.22-4.55,1.8l-4,1.6c-1.18.49-2.15.87-2.9,1.15s-1.14.43-1.17.43Z" transform="translate(-0.33 -28.37)"/><path class="cls-1" d="M52.28,28.37h14.4l-5.3,8.5h.2l18.3-8.5H99.33l-17.9,8.5h6.45l-11.25,18H62.23l5.35-8.6H55.48l-5.35,8.6H35.73Zm13.45.6H52.58L36.73,54.27H49.88l5.4-8.6H68.63l-5.4,8.6h13.1l10.5-16.8H79l18-8.5H79.68l-18.3,8.5h-1Zm-12.65,1.3h10.4l-5.3,8.5H61l18.25-8.5h12.6L74,38.77h10.7L75.83,53H65.43l5.35-8.6H54.68L49.33,53H38.93Z" transform="translate(-0.33 -28.37)"/><path class="cls-2" d="M13.4,65.66l6.29-10.07H35.18l-.76.84c-.2.24-.37.43-.48.58l-.69.88c-.29.35-.67.77-1.15,1.25H22.9l-1.84,2.94H31.62q-.32.21-.93.57l-1.34.75c-.48.26-1,.53-1.5.79l-1.42.73c-.44.23-.81.4-1.12.54a2.7,2.7,0,0,1-.56.2Zm6.39-9.84-6,9.61H24.88a2,2,0,0,0,.5-.18l1-.47,1.26-.62c.46-.23.9-.46,1.33-.7l1.18-.65c.36-.21.63-.37.82-.5H20.7l2.13-3.4h9.25c.37-.38.69-.74,1-1.07l.7-.87a13.36,13.36,0,0,1,1-1.15ZM14.6,64.93,20,56.31H33.73l-.28.36-.44.56-.5.63c-.17.21-.34.39-.49.56h-9.4l-2.74,4.39h9.67a5,5,0,0,1-.57.34l-.83.44-.94.47c-.33.17-.63.31-.91.44l-.72.31a1.54,1.54,0,0,1-.38.12Z" transform="translate(-0.33 -28.37)"/><path class="cls-2" d="M40.35,62.08l1.74-2.79,3.5,3.1-2,3.27H29l6.29-10.07h5.4l-4.07,6.49Zm-4.94-6.26-6,9.61H43.44l1.83-2.91-3.2-2.83-1.63,2.62H36.26l4.07-6.49Zm9.17,7-1.33,2.12h-13l5.38-8.62h3.91l-4,6.5h5.19L42,60.57Z" transform="translate(-0.33 -28.37)"/><path class="cls-2" d="M44.09,65.66l6.29-10.07H65.84L59.55,65.66Zm6.4-9.84-6,9.61h15l6-9.61ZM45.3,64.93l5.38-8.62H64.63l-5.38,8.62Zm14.1-6.51H53.3l-2.73,4.39h6.1Zm-8,3.89,2.13-3.4h5.06l-2.13,3.4Zm2.23-3.17-1.85,2.94h4.58l1.85-2.94Z" transform="translate(-0.33 -28.37)"/><path class="cls-2" d="M76.41,55.59h5.43L75.55,65.66H60.09l6.29-10.07h5.45l-4.07,6.49h4.58Zm5,.23h-5l-4.06,6.49H67.38l4.07-6.49h-5l-6,9.61h15Zm-4.75.49h3.91l-5.37,8.62h-14l5.38-8.62h3.93l-4,6.5h6.09Z" transform="translate(-0.33 -28.37)"/><path class="cls-2" d="M76.08,65.66l6.29-10.07H94.59a2.25,2.25,0,0,1,1,.22,1.66,1.66,0,0,1,.71.59,1.63,1.63,0,0,1,.22.93,2.63,2.63,0,0,1-.43,1.18l-2.64,4.22a6.21,6.21,0,0,1-.79,1,6.35,6.35,0,0,1-1.14.94,6.65,6.65,0,0,1-1.47.7,5.66,5.66,0,0,1-1.77.28Zm6.41-9.84-6,9.61h12a5.12,5.12,0,0,0,1.64-.26,6.39,6.39,0,0,0,1.37-.64,5.65,5.65,0,0,0,1-.87,6.28,6.28,0,0,0,.73-.93l2.64-4.22a2.31,2.31,0,0,0,.41-1.1,1.38,1.38,0,0,0-.85-1.4,2.32,2.32,0,0,0-1-.19ZM77.3,64.93l5.38-8.62H94.13a1.91,1.91,0,0,1,.8.16,1.3,1.3,0,0,1,.55.45,1.12,1.12,0,0,1,.18.69,1.8,1.8,0,0,1-.31.9l-2.64,4.22a4.37,4.37,0,0,1-.6.77,5,5,0,0,1-.86.7,5.13,5.13,0,0,1-1.13.53,4.51,4.51,0,0,1-1.36.2Zm5.26-2.12h6l.2-.15a.77.77,0,0,0,.18-.18l2.34-3.74c0-.06.06-.11,0-.13a.66.66,0,0,1,0-.19h-6Zm.82-.5,2.13-3.4h5.13l-2.13,3.4Zm2.22-3.17-1.84,2.94h4.66l1.84-2.94Z" transform="translate(-0.33 -28.37)"/></svg>